<svg width="29" height="27" viewBox="0 0 29 27" fill="none" xmlns="http://www.w3.org/2000/svg">
<g clip-path="url(#clip0_23_82)">
<path d="M25.375 5.625V21.375C25.375 22.6176 24.293 23.625 22.9583 23.625H18.4271C18.0934 23.625 17.8229 23.3732 17.8229 23.0625V16.3125H20.6504C20.9376 16.3126 21.1851 16.1244 21.2425 15.8625L21.6775 13.8375C21.6955 13.7557 21.6734 13.6707 21.6174 13.6055C21.5614 13.5403 21.4772 13.5016 21.3875 13.5H17.8229V9.84375C17.8229 9.68842 17.9582 9.5625 18.125 9.5625H21.1458C21.4795 9.5625 21.75 9.31066 21.75 9V7.3125C21.75 7.00184 21.4795 6.75 21.1458 6.75H18.125C16.123 6.75 14.5 8.26104 14.5 10.125V13.5H13.0138C12.6801 13.5 12.4096 13.7518 12.4096 14.0625V15.75C12.4096 16.0607 12.6801 16.3125 13.0138 16.3125H14.5V23.0625C14.5 23.3732 14.2295 23.625 13.8958 23.625H6.04167C4.70698 23.625 3.625 22.6176 3.625 21.375V5.625C3.625 4.38236 4.70698 3.375 6.04167 3.375H22.9583C24.293 3.375 25.375 4.38236 25.375 5.625Z" fill="#333333"/>
</g>
<defs>
<clipPath id="clip0_23_82">
<rect width="29" height="27" fill="white"/>
</clipPath>
</defs>
</svg>
