<svg width="29" height="26" viewBox="0 0 29 26" fill="none" xmlns="http://www.w3.org/2000/svg">
<path d="M22.6407 3.17285H5.95808C4.64185 3.17285 3.57484 4.11996 3.57484 5.28828V20.0963C3.57484 21.2646 4.64185 22.2117 5.95808 22.2117H22.6407C23.9569 22.2117 25.0239 21.2646 25.0239 20.0963V5.28828C25.0239 4.11996 23.9569 3.17285 22.6407 3.17285ZM10.1287 18.5097C10.1287 18.8018 9.86198 19.0386 9.53293 19.0386H7.7455C7.41645 19.0386 7.14969 18.8018 7.14969 18.5097V11.1057C7.14969 10.8136 7.41645 10.5769 7.7455 10.5769H9.53293C9.86198 10.5769 10.1287 10.8136 10.1287 11.1057V18.5097ZM8.63922 9.51915C7.65205 9.51915 6.85179 8.80881 6.85179 7.93257C6.85179 7.05633 7.65205 6.346 8.63922 6.346C9.62638 6.346 10.4266 7.05633 10.4266 7.93257C10.4266 8.80881 9.62638 9.51915 8.63922 9.51915ZM21.4491 18.5097C21.4491 18.8018 21.1823 19.0386 20.8533 19.0386H19.0659C18.7368 19.0386 18.4701 18.8018 18.4701 18.5097V14.5433C18.4701 13.6671 17.6698 12.9567 16.6826 12.9567C15.6955 12.9567 14.8952 13.6671 14.8952 14.5433V18.5097C14.8952 18.8018 14.6285 19.0386 14.2994 19.0386H12.512C12.1829 19.0386 11.9162 18.8018 11.9162 18.5097V11.1057C11.9162 10.8136 12.1829 10.5769 12.512 10.5769H14.2994C14.6285 10.5769 14.8952 10.8136 14.8952 11.1057V11.7403C15.62 10.7613 16.8936 10.2164 18.2079 10.323C20.0878 10.5288 21.4878 11.9633 21.4491 13.6442V18.5097Z" fill="#333333"/>
</svg>
