<svg width="247" height="42" viewBox="0 0 247 42" fill="none" xmlns="http://www.w3.org/2000/svg">
<path d="M58.4095 23V5.54545H62.0998V12.7472H69.5913V5.54545H73.2731V23H69.5913V15.7898H62.0998V23H58.4095ZM82.1623 23.2557C80.8385 23.2557 79.6936 22.9744 78.7277 22.4119C77.7675 21.8437 77.026 21.054 76.5033 20.0426C75.9805 19.0256 75.7192 17.8466 75.7192 16.5057C75.7192 15.1534 75.9805 13.9716 76.5033 12.9602C77.026 11.9432 77.7675 11.1534 78.7277 10.5909C79.6936 10.0227 80.8385 9.73864 82.1623 9.73864C83.4862 9.73864 84.6283 10.0227 85.5885 10.5909C86.5544 11.1534 87.2987 11.9432 87.8214 12.9602C88.3442 13.9716 88.6055 15.1534 88.6055 16.5057C88.6055 17.8466 88.3442 19.0256 87.8214 20.0426C87.2987 21.054 86.5544 21.8437 85.5885 22.4119C84.6283 22.9744 83.4862 23.2557 82.1623 23.2557ZM82.1794 20.4432C82.7817 20.4432 83.2845 20.2727 83.6879 19.9318C84.0913 19.5852 84.3953 19.1136 84.5998 18.517C84.8101 17.9205 84.9152 17.2415 84.9152 16.4801C84.9152 15.7188 84.8101 15.0398 84.5998 14.4432C84.3953 13.8466 84.0913 13.375 83.6879 13.0284C83.2845 12.6818 82.7817 12.5085 82.1794 12.5085C81.5714 12.5085 81.0601 12.6818 80.6453 13.0284C80.2362 13.375 79.9265 13.8466 79.7163 14.4432C79.5118 15.0398 79.4095 15.7188 79.4095 16.4801C79.4095 17.2415 79.5118 17.9205 79.7163 18.517C79.9265 19.1136 80.2362 19.5852 80.6453 19.9318C81.0601 20.2727 81.5714 20.4432 82.1794 20.4432ZM90.9663 23V9.90909H94.4265V12.2188H94.58C94.8527 11.4517 95.3072 10.8466 95.9436 10.4034C96.58 9.96023 97.3413 9.73864 98.2277 9.73864C99.1254 9.73864 99.8896 9.96307 100.52 10.4119C101.151 10.8551 101.571 11.4574 101.782 12.2188H101.918C102.185 11.4688 102.668 10.8693 103.367 10.4205C104.071 9.96591 104.904 9.73864 105.864 9.73864C107.086 9.73864 108.077 10.1278 108.838 10.9062C109.606 11.679 109.989 12.7756 109.989 14.196V23H106.367V14.9119C106.367 14.1847 106.174 13.6392 105.787 13.2756C105.401 12.9119 104.918 12.7301 104.338 12.7301C103.679 12.7301 103.165 12.9403 102.796 13.3608C102.427 13.7756 102.242 14.3239 102.242 15.0057V23H98.722V14.8352C98.722 14.1932 98.5373 13.6818 98.168 13.3011C97.8044 12.9205 97.3243 12.7301 96.7277 12.7301C96.3243 12.7301 95.9606 12.8324 95.6368 13.0369C95.3186 13.2358 95.0658 13.517 94.8783 13.8807C94.6908 14.2386 94.597 14.6591 94.597 15.142V23H90.9663ZM118.823 23.2557C117.476 23.2557 116.317 22.983 115.346 22.4375C114.38 21.8864 113.635 21.108 113.113 20.1023C112.59 19.0909 112.329 17.8949 112.329 16.5142C112.329 15.1676 112.59 13.9858 113.113 12.9688C113.635 11.9517 114.371 11.1591 115.32 10.5909C116.275 10.0227 117.394 9.73864 118.678 9.73864C119.542 9.73864 120.346 9.87784 121.09 10.1562C121.84 10.429 122.493 10.8409 123.05 11.392C123.613 11.9432 124.05 12.6364 124.363 13.4716C124.675 14.3011 124.831 15.2727 124.831 16.3864V17.3835H113.777V15.1335H121.414C121.414 14.6108 121.3 14.1477 121.073 13.7443C120.846 13.3409 120.53 13.0256 120.127 12.7983C119.729 12.5653 119.266 12.4489 118.738 12.4489C118.186 12.4489 117.698 12.5767 117.272 12.8324C116.851 13.0824 116.522 13.4205 116.283 13.8466C116.044 14.267 115.922 14.7358 115.917 15.2528V17.392C115.917 18.0398 116.036 18.5994 116.275 19.071C116.519 19.5426 116.863 19.9062 117.306 20.1619C117.749 20.4176 118.275 20.5455 118.883 20.5455C119.286 20.5455 119.655 20.4886 119.99 20.375C120.326 20.2614 120.613 20.0909 120.851 19.8636C121.09 19.6364 121.272 19.358 121.397 19.0284L124.755 19.25C124.584 20.0568 124.235 20.7614 123.706 21.3636C123.184 21.9602 122.508 22.4261 121.678 22.7614C120.854 23.0909 119.902 23.2557 118.823 23.2557ZM148.863 14.2727C148.863 16.1761 148.503 17.7955 147.781 19.1307C147.065 20.4659 146.088 21.4858 144.849 22.1903C143.616 22.8892 142.23 23.2386 140.69 23.2386C139.139 23.2386 137.747 22.8864 136.514 22.1818C135.281 21.4773 134.307 20.4574 133.591 19.1222C132.875 17.7869 132.517 16.1705 132.517 14.2727C132.517 12.3693 132.875 10.75 133.591 9.41477C134.307 8.07955 135.281 7.0625 136.514 6.36364C137.747 5.65909 139.139 5.30682 140.69 5.30682C142.23 5.30682 143.616 5.65909 144.849 6.36364C146.088 7.0625 147.065 8.07955 147.781 9.41477C148.503 10.75 148.863 12.3693 148.863 14.2727ZM145.122 14.2727C145.122 13.0398 144.937 12 144.568 11.1534C144.204 10.3068 143.69 9.66477 143.025 9.22727C142.36 8.78977 141.582 8.57102 140.69 8.57102C139.798 8.57102 139.02 8.78977 138.355 9.22727C137.69 9.66477 137.173 10.3068 136.804 11.1534C136.44 12 136.258 13.0398 136.258 14.2727C136.258 15.5057 136.44 16.5455 136.804 17.392C137.173 18.2386 137.69 18.8807 138.355 19.3182C139.02 19.7557 139.798 19.9744 140.69 19.9744C141.582 19.9744 142.36 19.7557 143.025 19.3182C143.69 18.8807 144.204 18.2386 144.568 17.392C144.937 16.5455 145.122 15.5057 145.122 14.2727ZM158.569 9.90909V12.6364H150.489V9.90909H158.569ZM152.338 23V8.96307C152.338 8.0142 152.523 7.22727 152.892 6.60227C153.267 5.97727 153.779 5.50852 154.427 5.19602C155.074 4.88352 155.81 4.72727 156.634 4.72727C157.191 4.72727 157.699 4.76989 158.16 4.85511C158.625 4.94034 158.972 5.01705 159.199 5.08523L158.552 7.8125C158.41 7.76705 158.233 7.72443 158.023 7.68466C157.819 7.64489 157.608 7.625 157.392 7.625C156.858 7.625 156.486 7.75 156.276 8C156.066 8.24432 155.961 8.58807 155.961 9.03125V23H152.338ZM167.826 9.90909V12.6364H159.747V9.90909H167.826ZM161.596 23V8.96307C161.596 8.0142 161.781 7.22727 162.15 6.60227C162.525 5.97727 163.037 5.50852 163.684 5.19602C164.332 4.88352 165.068 4.72727 165.892 4.72727C166.449 4.72727 166.957 4.76989 167.417 4.85511C167.883 4.94034 168.23 5.01705 168.457 5.08523L167.809 7.8125C167.667 7.76705 167.491 7.72443 167.281 7.68466C167.076 7.64489 166.866 7.625 166.65 7.625C166.116 7.625 165.744 7.75 165.534 8C165.324 8.24432 165.218 8.58807 165.218 9.03125V23H161.596ZM170.044 23V9.90909H173.675V23H170.044ZM171.868 8.22159C171.329 8.22159 170.865 8.04261 170.479 7.68466C170.098 7.32102 169.908 6.88636 169.908 6.38068C169.908 5.88068 170.098 5.4517 170.479 5.09375C170.865 4.73011 171.329 4.54829 171.868 4.54829C172.408 4.54829 172.868 4.73011 173.249 5.09375C173.635 5.4517 173.829 5.88068 173.829 6.38068C173.829 6.88636 173.635 7.32102 173.249 7.68466C172.868 8.04261 172.408 8.22159 171.868 8.22159ZM182.498 23.2557C181.157 23.2557 180.004 22.9716 179.038 22.4034C178.078 21.8295 177.339 21.0341 176.822 20.017C176.311 19 176.055 17.8295 176.055 16.5057C176.055 15.1648 176.314 13.9886 176.831 12.9773C177.353 11.9602 178.095 11.1676 179.055 10.5994C180.015 10.0256 181.157 9.73864 182.481 9.73864C183.623 9.73864 184.623 9.94602 185.481 10.3608C186.339 10.7756 187.018 11.358 187.518 12.108C188.018 12.858 188.294 13.7386 188.345 14.75H184.919C184.822 14.0966 184.566 13.571 184.152 13.1733C183.743 12.7699 183.206 12.5682 182.541 12.5682C181.978 12.5682 181.487 12.7216 181.066 13.0284C180.652 13.3295 180.328 13.7699 180.095 14.3494C179.862 14.929 179.745 15.6307 179.745 16.4545C179.745 17.2898 179.859 18 180.086 18.5852C180.319 19.1705 180.646 19.6165 181.066 19.9233C181.487 20.2301 181.978 20.3835 182.541 20.3835C182.956 20.3835 183.328 20.2983 183.657 20.1278C183.993 19.9574 184.268 19.7102 184.484 19.3864C184.706 19.0568 184.851 18.6619 184.919 18.2017H188.345C188.288 19.2017 188.015 20.0824 187.527 20.8438C187.044 21.5994 186.376 22.1903 185.524 22.6165C184.672 23.0426 183.663 23.2557 182.498 23.2557ZM196.635 23.2557C195.289 23.2557 194.13 22.983 193.158 22.4375C192.192 21.8864 191.448 21.108 190.925 20.1023C190.402 19.0909 190.141 17.8949 190.141 16.5142C190.141 15.1676 190.402 13.9858 190.925 12.9688C191.448 11.9517 192.184 11.1591 193.133 10.5909C194.087 10.0227 195.206 9.73864 196.49 9.73864C197.354 9.73864 198.158 9.87784 198.902 10.1562C199.652 10.429 200.306 10.8409 200.863 11.392C201.425 11.9432 201.863 12.6364 202.175 13.4716C202.488 14.3011 202.644 15.2727 202.644 16.3864V17.3835H191.59V15.1335H199.226C199.226 14.6108 199.113 14.1477 198.885 13.7443C198.658 13.3409 198.343 13.0256 197.939 12.7983C197.542 12.5653 197.079 12.4489 196.55 12.4489C195.999 12.4489 195.51 12.5767 195.084 12.8324C194.664 13.0824 194.334 13.4205 194.096 13.8466C193.857 14.267 193.735 14.7358 193.729 15.2528V17.392C193.729 18.0398 193.848 18.5994 194.087 19.071C194.331 19.5426 194.675 19.9062 195.118 20.1619C195.561 20.4176 196.087 20.5455 196.695 20.5455C197.098 20.5455 197.468 20.4886 197.803 20.375C198.138 20.2614 198.425 20.0909 198.664 19.8636C198.902 19.6364 199.084 19.358 199.209 19.0284L202.567 19.25C202.397 20.0568 202.047 20.7614 201.519 21.3636C200.996 21.9602 200.32 22.4261 199.49 22.7614C198.667 23.0909 197.715 23.2557 196.635 23.2557Z" fill="#444444"/>
<path d="M29.3918 1.13459V13.583H15.3964V27.2763H0.764892C0.764892 27.2763 -2.53762 12.3325 4.58182 4.86912C12.2098 -3.12732 29.3918 1.13459 29.3918 1.13459Z" fill="#8169F1"/>
<path d="M44.0232 13.5833H30.0279V27.2766H16.0325V40.3474C16.0325 40.3474 32.5663 44.8843 40.2063 37.2353C47.6728 29.7601 44.0232 13.5833 44.0232 13.5833Z" fill="#A44CEE"/>
<path d="M59.1155 36.3439L57.0984 29.0711H58.2525L59.6694 34.7032H59.7369L61.2106 29.0711H62.3541L63.8278 34.7068H63.8953L65.3086 29.0711H66.4663L64.4457 36.3439H63.3413L61.8108 30.8964H61.754L60.2234 36.3439H59.1155ZM69.1421 36.454C68.6307 36.454 68.1845 36.3368 67.8033 36.1024C67.4222 35.868 67.1262 35.5401 66.9155 35.1187C66.7048 34.6973 66.5995 34.2049 66.5995 33.6415C66.5995 33.0756 66.7048 32.5809 66.9155 32.1571C67.1262 31.7333 67.4222 31.4042 67.8033 31.1699C68.1845 30.9355 68.6307 30.8183 69.1421 30.8183C69.6535 30.8183 70.0997 30.9355 70.4809 31.1699C70.862 31.4042 71.158 31.7333 71.3687 32.1571C71.5794 32.5809 71.6847 33.0756 71.6847 33.6415C71.6847 34.2049 71.5794 34.6973 71.3687 35.1187C71.158 35.5401 70.862 35.868 70.4809 36.1024C70.0997 36.3368 69.6535 36.454 69.1421 36.454ZM69.1457 35.5626C69.4771 35.5626 69.7517 35.475 69.9695 35.2998C70.1873 35.1246 70.3483 34.8915 70.4525 34.6003C70.559 34.3091 70.6123 33.9883 70.6123 33.6379C70.6123 33.2899 70.559 32.9703 70.4525 32.6791C70.3483 32.3855 70.1873 32.15 69.9695 31.9724C69.7517 31.7949 69.4771 31.7061 69.1457 31.7061C68.8118 31.7061 68.5349 31.7949 68.3147 31.9724C68.0969 32.15 67.9347 32.3855 67.8282 32.6791C67.724 32.9703 67.6719 33.2899 67.6719 33.6379C67.6719 33.9883 67.724 34.3091 67.8282 34.6003C67.9347 34.8915 68.0969 35.1246 68.3147 35.2998C68.5349 35.475 68.8118 35.5626 69.1457 35.5626ZM72.8699 36.3439V30.8893H73.8962V31.7558H73.953C74.0524 31.4622 74.2276 31.2314 74.4786 31.0633C74.7319 30.8929 75.0183 30.8077 75.3379 30.8077C75.4042 30.8077 75.4824 30.81 75.5723 30.8148C75.6647 30.8195 75.7369 30.8254 75.7889 30.8325V31.8481C75.7463 31.8363 75.6706 31.8233 75.5617 31.8091C75.4528 31.7925 75.3439 31.7842 75.235 31.7842C74.984 31.7842 74.7603 31.8375 74.5638 31.944C74.3697 32.0482 74.2158 32.1938 74.1022 32.3808C73.9885 32.5655 73.9317 32.7762 73.9317 33.0129V36.3439H72.8699ZM77.6844 34.4937L77.6773 33.1976H77.8619L80.0352 30.8893H81.3065L78.8278 33.5172H78.6609L77.6844 34.4937ZM76.7078 36.3439V29.0711H77.7696V36.3439H76.7078ZM80.1524 36.3439L78.1993 33.7515L78.9308 33.0094L81.4557 36.3439H80.1524ZM85.1169 32.8105V33.7302H81.8925V32.8105H85.1169ZM86.6172 36.3439V29.0711H87.7145V35.3993H91.01V36.3439H86.6172ZM92.1765 36.3439V30.8893H93.2383V36.3439H92.1765ZM92.7128 30.0477C92.5281 30.0477 92.3695 29.9862 92.2369 29.863C92.1067 29.7376 92.0416 29.5884 92.0416 29.4156C92.0416 29.2404 92.1067 29.0913 92.2369 28.9682C92.3695 28.8427 92.5281 28.78 92.7128 28.78C92.8974 28.78 93.0549 28.8427 93.1851 28.9682C93.3176 29.0913 93.3839 29.2404 93.3839 29.4156C93.3839 29.5884 93.3176 29.7376 93.1851 29.863C93.0549 29.9862 92.8974 30.0477 92.7128 30.0477ZM97.2627 30.8893V31.7416H94.1803V30.8893H97.2627ZM95.0254 36.3439V30.2572C95.0254 29.9163 95.1 29.6334 95.2492 29.4085C95.3983 29.1812 95.596 29.012 95.8422 28.9007C96.0884 28.7871 96.3559 28.7302 96.6448 28.7302C96.8578 28.7302 97.0401 28.748 97.1916 28.7835C97.3432 28.8166 97.4556 28.8474 97.529 28.8758L97.2804 29.7352C97.2307 29.721 97.1668 29.7044 97.0887 29.6855C97.0105 29.6642 96.9158 29.6535 96.8046 29.6535C96.5465 29.6535 96.3619 29.7175 96.2506 29.8453C96.1417 29.9731 96.0872 30.1578 96.0872 30.3993V36.3439H95.0254ZM100.494 36.454C99.9568 36.454 99.494 36.3391 99.1057 36.1095C98.7198 35.8775 98.4215 35.552 98.2108 35.1329C98.0025 34.7115 97.8983 34.2179 97.8983 33.6521C97.8983 33.0934 98.0025 32.601 98.2108 32.1748C98.4215 31.7487 98.7151 31.4161 99.0915 31.177C99.4703 30.9379 99.913 30.8183 100.42 30.8183C100.727 30.8183 101.026 30.8692 101.315 30.971C101.603 31.0728 101.863 31.2326 102.092 31.4504C102.322 31.6682 102.503 31.9511 102.636 32.2991C102.768 32.6448 102.834 33.065 102.834 33.5598V33.9362H98.4985V33.1407H101.794C101.794 32.8614 101.737 32.614 101.623 32.3986C101.51 32.1808 101.35 32.0091 101.144 31.8836C100.94 31.7582 100.701 31.6954 100.427 31.6954C100.128 31.6954 99.868 31.7688 99.6455 31.9156C99.4253 32.06 99.2548 32.2494 99.1341 32.4838C99.0157 32.7158 98.9566 32.9679 98.9566 33.2402V33.8616C98.9566 34.2262 99.0205 34.5363 99.1483 34.792C99.2785 35.0477 99.4596 35.243 99.6916 35.378C99.9236 35.5105 100.195 35.5768 100.505 35.5768C100.706 35.5768 100.89 35.5484 101.055 35.4916C101.221 35.4324 101.364 35.3448 101.485 35.2288C101.606 35.1128 101.698 34.9696 101.762 34.7991L102.767 34.9802C102.686 35.2762 102.542 35.5354 102.334 35.7579C102.128 35.9781 101.868 36.1497 101.556 36.2728C101.246 36.3936 100.892 36.454 100.494 36.454ZM106.744 36.3439V29.0711H109.408C109.924 29.0711 110.351 29.1564 110.69 29.3268C111.028 29.4949 111.281 29.7234 111.449 30.0122C111.618 30.2987 111.702 30.6218 111.702 30.9817C111.702 31.2847 111.646 31.5404 111.535 31.7487C111.423 31.9547 111.274 32.1204 111.087 32.2459C110.903 32.369 110.699 32.4589 110.476 32.5157V32.5868C110.718 32.5986 110.953 32.6767 111.183 32.8211C111.415 32.9632 111.607 33.1656 111.758 33.4284C111.91 33.6912 111.986 34.0108 111.986 34.3872C111.986 34.7589 111.898 35.0927 111.723 35.3886C111.55 35.6822 111.283 35.9154 110.92 36.0882C110.558 36.2586 110.095 36.3439 109.532 36.3439H106.744ZM107.841 35.4028H109.425C109.951 35.4028 110.327 35.301 110.555 35.0974C110.782 34.8938 110.895 34.6393 110.895 34.3339C110.895 34.1043 110.837 33.8936 110.721 33.7018C110.605 33.5101 110.44 33.3574 110.224 33.2437C110.011 33.1301 109.758 33.0733 109.464 33.0733H107.841V35.4028ZM107.841 32.2175H109.312C109.558 32.2175 109.779 32.1701 109.976 32.0754C110.175 31.9807 110.332 31.8481 110.448 31.6777C110.566 31.5049 110.626 31.3013 110.626 31.0669C110.626 30.7662 110.52 30.5141 110.31 30.3105C110.099 30.1069 109.776 30.0051 109.34 30.0051H107.841V32.2175ZM114.264 29.0711V36.3439H113.202V29.0711H114.264ZM118.043 36.454C117.506 36.454 117.043 36.3391 116.655 36.1095C116.269 35.8775 115.97 35.552 115.76 35.1329C115.551 34.7115 115.447 34.2179 115.447 33.6521C115.447 33.0934 115.551 32.601 115.76 32.1748C115.97 31.7487 116.264 31.4161 116.64 31.177C117.019 30.9379 117.462 30.8183 117.968 30.8183C118.276 30.8183 118.575 30.8692 118.863 30.971C119.152 31.0728 119.411 31.2326 119.641 31.4504C119.871 31.6682 120.052 31.9511 120.184 32.2991C120.317 32.6448 120.383 33.065 120.383 33.5598V33.9362H116.047V33.1407H119.343C119.343 32.8614 119.286 32.614 119.172 32.3986C119.059 32.1808 118.899 32.0091 118.693 31.8836C118.489 31.7582 118.25 31.6954 117.976 31.6954C117.677 31.6954 117.417 31.7688 117.194 31.9156C116.974 32.06 116.804 32.2494 116.683 32.4838C116.565 32.7158 116.505 32.9679 116.505 33.2402V33.8616C116.505 34.2262 116.569 34.5363 116.697 34.792C116.827 35.0477 117.008 35.243 117.24 35.378C117.472 35.5105 117.744 35.5768 118.054 35.5768C118.255 35.5768 118.438 35.5484 118.604 35.4916C118.77 35.4324 118.913 35.3448 119.034 35.2288C119.155 35.1128 119.247 34.9696 119.311 34.7991L120.316 34.9802C120.235 35.2762 120.091 35.5354 119.883 35.7579C119.677 35.9781 119.417 36.1497 119.105 36.2728C118.795 36.3936 118.441 36.454 118.043 36.454ZM122.623 33.1052V36.3439H121.561V30.8893H122.58V31.7771H122.648C122.773 31.4883 122.97 31.2563 123.237 31.0811C123.507 30.9059 123.847 30.8183 124.257 30.8183C124.628 30.8183 124.954 30.8964 125.233 31.0527C125.513 31.2066 125.729 31.4362 125.883 31.7416C126.037 32.047 126.114 32.4246 126.114 32.8744V36.3439H125.052V33.0023C125.052 32.6069 124.949 32.2979 124.743 32.0754C124.537 31.8505 124.254 31.738 123.894 31.738C123.648 31.738 123.429 31.7913 123.237 31.8978C123.048 32.0044 122.898 32.1606 122.786 32.3666C122.678 32.5702 122.623 32.8164 122.623 33.1052ZM129.58 36.4504C129.139 36.4504 128.746 36.338 128.401 36.113C128.058 35.8858 127.788 35.5626 127.591 35.1436C127.397 34.7222 127.3 34.2167 127.3 33.6273C127.3 33.0378 127.398 32.5335 127.595 32.1145C127.794 31.6954 128.066 31.3746 128.411 31.1521C128.757 30.9296 129.149 30.8183 129.587 30.8183C129.925 30.8183 130.198 30.8751 130.404 30.9888C130.612 31.1 130.773 31.2302 130.887 31.3794C131.003 31.5285 131.093 31.6599 131.156 31.7736H131.22V29.0711H132.282V36.3439H131.245V35.4952H131.156C131.093 35.6112 131 35.7437 130.879 35.8929C130.761 36.042 130.598 36.1722 130.389 36.2835C130.181 36.3948 129.911 36.4504 129.58 36.4504ZM129.814 35.5449C130.12 35.5449 130.378 35.4644 130.588 35.3034C130.801 35.14 130.962 34.9139 131.071 34.6251C131.183 34.3363 131.238 34.0001 131.238 33.6166C131.238 33.2378 131.184 32.9064 131.075 32.6223C130.966 32.3382 130.806 32.1168 130.595 31.9582C130.385 31.7996 130.124 31.7203 129.814 31.7203C129.495 31.7203 129.228 31.8032 129.015 31.9689C128.802 32.1346 128.641 32.3607 128.532 32.6471C128.426 32.9336 128.372 33.2568 128.372 33.6166C128.372 33.9812 128.427 34.3091 128.536 34.6003C128.645 34.8915 128.806 35.1223 129.019 35.2927C129.234 35.4608 129.499 35.5449 129.814 35.5449Z" fill="#333333" fill-opacity="0.6"/>
</svg>
