<svg width="29" height="27" viewBox="0 0 29 27" fill="none" xmlns="http://www.w3.org/2000/svg">
<g clip-path="url(#clip0_23_78)">
<path d="M26.5833 6.75C26.5833 5.50736 25.5014 4.5 24.1667 4.5H4.83333C3.49864 4.5 2.41666 5.50736 2.41666 6.75V20.25C2.41666 21.4926 3.49864 22.5 4.83333 22.5H24.1667C25.5014 22.5 26.5833 21.4926 26.5833 20.25V6.75ZM20.6625 6.75L14.5 11.34L8.3375 6.75H20.6625ZM22.9583 20.25H6.04166V9.36L13.5454 14.985C13.758 15.1438 14.022 15.231 14.2946 15.2325H14.7175C14.9901 15.231 15.2541 15.1438 15.4667 14.985L22.9583 9.36V20.25Z" fill="#333333"/>
</g>
<defs>
<clipPath id="clip0_23_78">
<rect width="29" height="27" fill="white"/>
</clipPath>
</defs>
</svg>
