<svg width="29" height="27" viewBox="0 0 29 27" fill="none" xmlns="http://www.w3.org/2000/svg">
<g clip-path="url(#clip0_23_86)">
<path d="M19.3333 3.375H9.66667C6.32995 3.375 3.625 5.8934 3.625 9V18C3.625 21.1066 6.32995 23.625 9.66667 23.625H19.3333C22.6701 23.625 25.375 21.1066 25.375 18V9C25.375 5.8934 22.6701 3.375 19.3333 3.375ZM23.2604 18C23.2538 20.0167 21.4994 21.6501 19.3333 21.6562H9.66667C7.50055 21.6501 5.74622 20.0167 5.73958 18V9C5.74622 6.98327 7.50055 5.34993 9.66667 5.34375H19.3333C21.4994 5.34993 23.2538 6.98327 23.2604 9V18ZM21.4479 8.15625C21.4479 8.77757 20.9069 9.28125 20.2396 9.28125C19.5722 9.28125 19.0313 8.77757 19.0313 8.15625C19.0313 7.53493 19.5722 7.03125 20.2396 7.03125C20.9069 7.03125 21.4479 7.53493 21.4479 8.15625ZM14.5 8.4375C11.497 8.4375 9.0625 10.7041 9.0625 13.5C9.0625 16.2959 11.497 18.5625 14.5 18.5625C17.503 18.5625 19.9375 16.2959 19.9375 13.5C19.9407 12.1564 19.3689 10.867 18.3484 9.91696C17.328 8.96691 15.9431 8.4345 14.5 8.4375ZM14.5 16.5938C12.6648 16.5938 11.1771 15.2086 11.1771 13.5C11.1771 11.7914 12.6648 10.4062 14.5 10.4062C16.3352 10.4062 17.8229 11.7914 17.8229 13.5C17.8229 15.2086 16.3352 16.5938 14.5 16.5938Z" fill="#333333"/>
</g>
<defs>
<clipPath id="clip0_23_86">
<rect width="29" height="27" fill="white"/>
</clipPath>
</defs>
</svg>
